<?xml version="1.0" encoding="UTF-8" standalone="no"?>
<!-- Created with Inkscape (http://www.inkscape.org/) -->

<svg
   width="40.000126"
   height="40"
   viewBox="0 0 10.583367 10.583333"
   version="1.1"
   id="svg1"
   inkscape:version="1.4.2 (f4327f4, 2025-05-13)"
   sodipodi:docname="web.svg"
   xmlns:inkscape="http://www.inkscape.org/namespaces/inkscape"
   xmlns:sodipodi="http://sodipodi.sourceforge.net/DTD/sodipodi-0.dtd"
   xmlns="http://www.w3.org/2000/svg"
   xmlns:svg="http://www.w3.org/2000/svg">
  <sodipodi:namedview
     id="namedview1"
     pagecolor="#ffffff"
     bordercolor="#000000"
     borderopacity="0.25"
     inkscape:showpageshadow="2"
     inkscape:pageopacity="0.0"
     inkscape:pagecheckerboard="0"
     inkscape:deskcolor="#d1d1d1"
     inkscape:document-units="px"
     inkscape:zoom="1.4142136"
     inkscape:cx="2307.9965"
     inkscape:cy="-83.792153"
     inkscape:window-width="2560"
     inkscape:window-height="1369"
     inkscape:window-x="-8"
     inkscape:window-y="-8"
     inkscape:window-maximized="1"
     inkscape:current-layer="layer2" />
  <defs
     id="defs1" />
  <g
     inkscape:label="Layer 1"
     inkscape:groupmode="layer"
     id="layer1"
     transform="translate(-380.99999,-1.3229167)">
    <path
       d="M 381,1.3229167 V 11.90625 h 5.29166 c 0.23105,-5.9e-5 0.46185,-0.01525 0.69092,-0.04547 0.22887,-0.03011 0.45552,-0.07517 0.67851,-0.134876 0.22321,-0.05967 0.44227,-0.133902 0.65577,-0.222209 0.21335,-0.08849 0.42067,-0.190859 0.62064,-0.306441 0.20007,-0.115455 0.39238,-0.243887 0.57567,-0.384472 0.18323,-0.140582 0.35707,-0.29301 0.52038,-0.456303 0.1633,-0.163317 0.31572,-0.33715 0.45631,-0.520382 0.14058,-0.1832939 0.26901,-0.3755979 0.38447,-0.5756754 0.11558,-0.1999682 0.21795,-0.4072904 0.30644,-0.620634 0.0883,-0.2135053 0.16254,-0.4325663 0.22221,-0.6557739 0.0597,-0.2229861 0.10476,-0.4496417 0.13487,-0.6785115 0.0302,-0.2290644 0.0454,-0.4598639 0.0455,-0.6909139 -6e-5,-0.23105 -0.0152,-0.4618495 -0.0455,-0.6909139 -0.0301,-0.2288699 -0.0752,-0.4555255 -0.13487,-0.6785116 -0.0597,-0.2232075 -0.1339,-0.4422685 -0.22221,-0.6557739 -0.0885,-0.2133436 -0.19086,-0.4206658 -0.30644,-0.6206339 -0.11546,-0.2000776 -0.24389,-0.3923815 -0.38447,-0.5756755 -0.14059,-0.1832317 -0.29301,-0.3570647 -0.45631,-0.5203817 -0.16331,-0.1632934 -0.33715,-0.3157209 -0.52038,-0.4563028 -0.18329,-0.1405851 -0.3756,-0.2690179 -0.57567,-0.3844727 -0.19997,-0.115582 -0.40729,-0.2179484 -0.62064,-0.3064412 -0.2135,-0.088306 -0.43256,-0.162535 -0.65577,-0.2222087 -0.22299,-0.05971 -0.44964,-0.1047648 -0.67851,-0.1348755 -0.22907,-0.030226 -0.45987,-0.045417 -0.69092,-0.045475 z m 6.46885,1.3229166 c 0.13041,0 0.25772,0.012025 0.38344,0.029456 0.0335,0.00473 0.0669,0.010073 0.10025,0.01602 0.12346,0.02176 0.24541,0.048293 0.36277,0.085783 0.116,0.037498 0.22941,0.082553 0.33952,0.1348755 0.049,0.02316 0.0951,0.051113 0.14262,0.076998 0.0581,0.030534 0.1152,0.063111 0.17105,0.097668 0.0554,0.035507 0.10802,0.074986 0.16072,0.1142049 0.0439,0.031987 0.0868,0.065247 0.12867,0.099735 0.0532,0.044651 0.1042,0.091615 0.154,0.1400431 0.0363,0.035547 0.0716,0.072079 0.10593,0.1095541 0.0468,0.050746 0.0924,0.1024817 0.1354,0.1565796 0.0337,0.043135 0.0661,0.087252 0.0971,0.1322916 0.0379,0.053875 0.0755,0.1077692 0.10955,0.1643311 0.0317,0.054611 0.0615,0.1102818 0.0894,0.1669149 0.026,0.050592 0.0541,0.1001346 0.077,0.1524454 0.14368,0.3282366 0.22281,0.6810641 0.23306,1.0392131 6.4e-4,0.025011 0.001,0.05028 0.001,0.075448 -6.3e-4,0.1109203 -0.008,0.2217047 -0.0217,0.3317627 -0.004,0.033223 -0.01,0.065843 -0.015,0.098702 -0.0131,0.083579 -0.03,0.1665195 -0.0506,0.2485637 -0.007,0.02792 -0.0132,0.056133 -0.0212,0.083716 -0.0605,0.2111605 -0.14561,0.4144503 -0.25373,0.6056478 -0.0141,0.024974 -0.028,0.049923 -0.0429,0.074414 -0.0516,0.085816 -0.10789,0.1687914 -0.16846,0.2485637 -0.0195,0.025395 -0.0407,0.049194 -0.061,0.073897 -0.0505,0.061672 -0.10359,0.121155 -0.15917,0.1782837 -0.0214,0.021988 -0.042,0.044868 -0.0641,0.066146 -0.0719,0.068931 -0.14747,0.1339648 -0.22634,0.1948201 -0.0245,0.019059 -0.0497,0.037044 -0.0749,0.055294 -0.23607,0.1708813 -0.49744,0.3037494 -0.77463,0.3937744 -0.27704,0.090122 -0.56649,0.1363291 -0.85783,0.1369426 -0.50302,1.8e-5 -0.9967,-0.1358565 -1.42885,-0.3932577 -0.0552,-0.033068 -0.10905,-0.068212 -0.16175,-0.1049031 l -5.1e-4,5.167e-4 -2.70527,2.7052618 c -0.0933,0.09459 -0.22061,0.147826 -0.35346,0.147794 -0.13159,2.7e-5 -0.2578,-0.0522 -0.35089,-0.145211 -0.093,-0.09309 -0.14523,-0.219296 -0.14521,-0.350882 -2e-5,-0.131587 0.0522,-0.2577985 0.14521,-0.3508837 l 2.70785,-2.707845 5.2e-4,-5.168e-4 c -0.0844,-0.1211792 -0.15968,-0.2493939 -0.22428,-0.3834391 -0.13536,-0.2819909 -0.22236,-0.5847271 -0.25735,-0.8955526 -0.0116,-0.1022381 -0.0176,-0.2063989 -0.0176,-0.3116088 v -0.00207 c 5.6e-4,-0.092701 0.006,-0.1853166 0.0155,-0.2775024 0.002,-0.022012 0.005,-0.043769 0.008,-0.065629 0.009,-0.071568 0.0207,-0.1427633 0.0351,-0.2134237 0.005,-0.023844 0.01,-0.047693 0.015,-0.071313 0.0463,-0.1996219 0.11437,-0.3935445 0.20309,-0.5782593 0.0247,-0.051025 0.0541,-0.099057 0.0817,-0.1483114 0.0268,-0.049592 0.055,-0.098363 0.0847,-0.1462443 0.0349,-0.054376 0.0731,-0.106407 0.11162,-0.1581299 0.0285,-0.038824 0.0579,-0.076905 0.0884,-0.1142049 0.0425,-0.051349 0.0873,-0.1006542 0.13332,-0.1488281 0.0326,-0.034261 0.066,-0.067689 0.10025,-0.1002523 0.0476,-0.045012 0.0962,-0.088602 0.14677,-0.1302246 0.0403,-0.032663 0.0815,-0.064199 0.1235,-0.094568 0.0486,-0.035665 0.0974,-0.071342 0.14831,-0.1038696 0.0525,-0.03243 0.10614,-0.063108 0.16072,-0.091984 0.0455,-0.024999 0.0899,-0.051925 0.13694,-0.074414 0.1848,-0.088 0.37872,-0.1554129 0.57826,-0.2010213 0.0224,-0.00512 0.0451,-0.00937 0.0677,-0.013953 0.0691,-0.014002 0.13878,-0.025379 0.20878,-0.034107 0.0239,-0.00298 0.0477,-0.00643 0.0718,-0.00879 0.0905,-0.00926 0.18137,-0.014085 0.27233,-0.014469 z m 0,0.9916707 c -0.31588,8.14e-5 -0.62617,0.083313 -0.89968,0.241329 -0.27341,0.1578944 -0.50047,0.3849484 -0.65836,0.6583577 -0.15802,0.2735148 -0.24125,0.5838082 -0.24133,0.8996867 8e-5,0.3158785 0.0833,0.6261719 0.24133,0.8996867 0.15789,0.2734093 0.38495,0.5004633 0.65836,0.6583577 0.27351,0.1580155 0.5838,0.2412476 0.89968,0.241329 0.31588,-8.14e-5 0.62617,-0.083314 0.89969,-0.241329 0.27341,-0.1578944 0.50046,-0.3849484 0.65836,-0.6583577 0.15801,-0.2735148 0.24124,-0.5838082 0.24133,-0.8996867 -9e-5,-0.3158785 -0.0833,-0.6261719 -0.24133,-0.8996867 -0.1579,-0.2734093 -0.38495,-0.5004633 -0.65836,-0.6583577 -0.27352,-0.1580156 -0.58381,-0.2412476 -0.89969,-0.241329 z"
       style="fill:#ffffff;fill-opacity:1;stroke-width:1.05833;stroke-linecap:round"
       id="path18"
       inkscape:export-filename="icons\searchbarend.svg"
       inkscape:export-xdpi="96"
       inkscape:export-ydpi="96" />
  </g>
</svg>
